# AST/ASF file generated using VICON BodyLanguage
# -----------------------------------------------
:version 1.10
:name VICON
:units
  mass 1.0
  length 0.45
  angle deg
:documentation
   .ast/.asf automatically generated from VICON data using
   VICON BodyBuilder and BodyLanguage model FoxedUp or BRILLIANT.MOD
:root
   order TX TY TZ RX RY RZ
   axis XYZ
   position 0 0 0  
   orientation 0 0 0 
:bonedata
  begin
     id 1 
     name lhipjoint
     direction 0.560651 -0.75055 0.34978 
     length 2.44936 
     axis 0 0 0  XYZ
  end
  begin
     id 2 
     name lfemur
     direction 0.34202 -0.939693 0  
     length 7.42139  
     axis 0 0 20  XYZ
    dof rx ry rz
    limits (-160.0 20.0)
           (-70.0 70.0)
           (-60.0 70.0)
  end
  begin
     id 3 
     name ltibia
     direction 0.34202 -0.939693 0   
     length 7.75674   
     axis 0 0 20   XYZ
    dof rx
    limits (-10.0 170.0)
  end
  begin
     id 4 
     name lfoot
     direction 0.0925879 -0.254383 0.962661   
     length 2.38688   
     axis -90 7.62852e-016 20   XYZ
    dof rx rz
    limits (-45.0 90.0)
           (-70.0 20.0)
  end
  begin
     id 5 
     name ltoes
     direction 1.53567e-011 -4.21973e-011 1   
     length 1.19228   
     axis -90 7.62852e-016 20   XYZ
    dof rx
    limits (-90.0 20.0)
  end
  begin
     id 6 
     name rhipjoint
     direction -0.540087 -0.762838 0.355506   
     length 2.4099  
     axis 0 0 0  XYZ 
  end
  begin
     id 7 
     name rfemur
     direction -0.34202 -0.939693 0   
     length 7.70794   
     axis 0 0 -20   XYZ
    dof rx ry rz
    limits (-160.0 20.0)
           (-70.0 70.0)
           (-70.0 60.0)
  end
  begin
     id 8 
     name rtibia
     direction -0.34202 -0.939693 0   
     length 7.66106   
     axis 0 0 -20   XYZ
    dof rx
    limits (-10.0 170.0)
 end
 begin
     id 9 
     name rfoot
     direction -0.0830975 -0.228308 0.970036   
     length 2.4989  
     axis -90 -7.62852e-016 -20   XYZ
    dof rx rz
    limits (-45.0 90.0)
           (-20.0 70.0)
  end
  begin
     id 10 
     name rtoes
     direction -1.53517e-011 -4.21842e-011 1   
     length 1.2498   
     axis -90 -7.62852e-016 -20   XYZ
    dof rx
    limits (-90.0 20.0)
  end
  begin
     id 11 
     name lowerback
     direction 0.0266356 0.99402 -0.105896   
     length 2.1545   
     axis 0 0 0   XYZ
    dof rx ry rz
    limits (-20.0 45.0)
           (-30.0 30.0)
           (-30.0 30.0)
  end
  begin
     id 12 
     name upperback
     direction 0.0130547 0.999192 0.0380027   
     length 2.1434   
     axis 0 0 0   XYZ
    dof rx ry rz
    limits (-20.0 45.0)
           (-30.0 30.0)
           (-30.0 30.0)
  end
  begin
     id 13 
     name thorax
     direction 0.000590299 0.996288 0.0860764   
     length 2.19049   
     axis 0 0 0   XYZ
    dof rx ry rz
    limits (-20.0 45.0)
           (-30.0 30.0)
           (-30.0 30.0)
  end
  begin
     id 14 
     name lowerneck
     direction -0.0432125 0.978219 0.203028   
     length 1.62441   
     axis 0 0 0   XYZ
    dof rx ry rz
    limits (-20.0 45.0)
           (-30.0 30.0)
           (-30.0 30.0)
  end
  begin
     id 15 
     name upperneck
     direction -0.0192309 0.991699 -0.127138   
     length 1.66666   
     axis 0 0 0   XYZ
    dof rx ry rz
    limits (-20.0 45.0)
           (-30.0 30.0)
           (-30.0 30.0)
  end
  begin
     id 16
     name head
     direction -0.00434499 0.997882 -0.0649107  
     length 1.67142  
     axis 0 0 0   XYZ
    dof rx ry rz
    limits (-20.0 45.0)
           (-30.0 30.0)
           (-30.0 30.0)
  end
  begin
     id 17 
     name lclavicle
     direction 0.970351 0.240904 -0.0196058  
     length 4.04862  
     axis 0 0 0   XYZ
    dof ry rz
    limits (-20.0 10.0)
           (0.0 20.0)
  end
  begin
     id 18 
     name lhumerus
     direction 1 -4.4896e-011 -1.40911e-018   
     length 5.58345   
     axis 180 -30 -90   XYZ
    dof rx ry rz
    limits (-60.0 90.0)
           (-90.0 90.0)
           (-90.0 90.0)
  end
  begin
     id 19
     name lradius
     direction 1 -4.48968e-011 5.88912e-028   
     length 3.71087   
     axis 180 -30 -90   XYZ
    dof rx
    limits (-10.0 170.0)
  end
  begin
     id 20
     name lwrist
     direction 1 -4.48955e-011 -8.83775e-028   
     length 1.85544   
     axis 5.52448e-016 90 90   XYZ
    dof ry
    limits (-180.0 0.0)
 end
  begin
     id 21 
     name lhand
     direction 1 -4.49035e-011 -1.76755e-027   
     length 0.562322   
     axis 1.12785e-015 90 90   XYZ
    dof rx rz
    limits (-90.0 90.0)
           (-45.0 45.0)
  end
  begin
     id 22 
     name lfingers
     direction 1 -4.48824e-011 -3.5351e-027   
     length 0.453359   
     axis 2.2557e-015 90 90   XYZ
    dof rx
    limits (0.0 90.0)
  end
  begin
     id 23
     name lthumb
     direction 0.707107 -6.34888e-011 0.707107   
     length 0.650935   
     axis -90 45 2.85299e-015   XYZ
    dof rx rz
    limits (-45.0 45.0)
           (-45.0 45.0)
  end
  begin
     id 24 
     name rclavicle
     direction -0.96165 0.268562 -0.0557131   
     length 4.05446  
     axis 0 0 0   XYZ 
    dof ry rz
    limits (-10.0 20.0)
           (-20.0 0.0)
  end
  begin
     id 25 
     name rhumerus
     direction -1 -4.48957e-011 -3.36329e-027  
     length 5.20357   
     axis 180 30 90   XYZ
    dof rx ry rz
    limits (-90.0 60.0)
           (-90.0 90.0)
           (-90.0 90.0)
  end
  begin
     id 26 
     name rradius
     direction -1 -4.48974e-011 4.51441e-027   
     length 3.64937   
     axis 180 30 90   XYZ
    dof rx
    limits (-10.0 170.0)
  end
  begin
     id 27 
     name rwrist
     direction -1 -4.4896e-011 -8.83775e-028   
     length 1.82468   
     axis 5.52448e-016 -90 -90   XYZ
    dof ry
    limits (-180.0 0.0)
  end
  begin
     id 28
     name rhand
     direction -1 -4.48996e-011 -1.76755e-027   
     length 0.617996   
     axis 1.12785e-015 -90 -90   XYZ
    dof rx rz
    limits (-90.0 90.0)
           (-45.0 45.0)
  end
  begin
     id 29
     name rfingers
     direction -1 -4.48957e-011 -3.5351e-027   
     length 0.498244   
     axis 2.2557e-015 -90 -90   XYZ
    dof rx
    limits (0.0 90.0)
  end
  begin
     id 30
     name rthumb
     direction -0.707107 -6.34931e-011 0.707107   
     length 0.715382   
     axis -90 -45 -2.85299e-015   XYZ
    dof rx rz
    limits (-45.0 45.0)
           (-45.0 45.0)
  end
:hierarchy
  begin
    root lhipjoint rhipjoint lowerback
    lhipjoint lfemur
    lfemur ltibia
    ltibia lfoot
    lfoot ltoes
    rhipjoint rfemur
    rfemur rtibia
    rtibia rfoot
    rfoot rtoes
    lowerback upperback
    upperback thorax
    thorax lowerneck lclavicle rclavicle
    lowerneck upperneck
    upperneck head
    lclavicle lhumerus
    lhumerus lradius
    lradius lwrist
    lwrist lhand lthumb
    lhand lfingers
    rclavicle rhumerus
    rhumerus rradius
    rradius rwrist
    rwrist rhand rthumb
    rhand rfingers
  end

#!OML:ASF H:\ManfredETheater\Project 1\Capture day 2\Session 1\Male1.ASF
:FULLY-SPECIFIED
:DEGREES
110
root 4.7034 11.7155 26.5492 35.8578 -54.4882 24.1852
lowerback 49.4679 -3.95646 5.53266
upperback 6.45182 -1.45094 4.94797
thorax -13.2525 -1.00825 3.60615
lowerneck -26.8323 1.92948 -0.419109
upperneck -6.10576 2.40973 -5.81821
head 2.23579 0.71698 -1.56379
rclavicle 8.26944e-014 -7.63333e-014
rhumerus 54.8206 8.9216 -58.5208
rradius 54.1108
rwrist 27.5784
rhand -60.0988 -28.608
rfingers 7.12502
rthumb -32.2459 -55.7643
lclavicle 8.26944e-014 -7.63333e-014
lhumerus 57.9644 -9.36671 52.798
lradius 88.0191
lwrist -16.1798
lhand -30.894 -9.69377
lfingers 7.12502
lthumb -4.1808 20.2449
rfemur -96.9458 -23.8144 18.4223
rtibia 126.152
rfoot -29.0296 -24.1341
rtoes -0.742023
lfemur -72.3448 6.57959 6.56706
ltibia 84.3811
lfoot -29.5848 -0.0506436
ltoes -36.237
111
root 4.5295 11.6932 27 38.6573 -55.7696 23.0164
lowerback 48.984 -4.02867 5.64043
upperback 6.32646 -1.48357 5.14745
thorax -13.3176 -1.02828 3.78102
lowerneck -26.5523 2.39252 0.146367
upperneck -6.78233 2.81291 -6.38584
head 2.0247 0.890046 -1.79776
rclavicle 1.74931e-014 -6.75868e-014
rhumerus 54.1028 9.78927 -57.7446
rradius 56.5999
rwrist 27.4398
rhand -60.2546 -29.7545
rfingers 7.12502
rthumb -32.3942 -56.8806
lclavicle 1.74931e-014 -6.75868e-014
lhumerus 59.0808 -7.15524 50.8863
lradius 88.2266
lwrist -15.7393
lhand -31.1323 -10.0329
lfingers 7.12502
lthumb -4.41092 19.9012
rfemur -96.4888 -22.9772 17.8753
rtibia 125.46
rfoot -28.6043 -23.2146
rtoes 0.197059
lfemur -72.5542 6.49409 6.33145
ltibia 85.4398
lfoot -30.0548 -0.371862
ltoes -36.2205
112
root 4.35082 11.6674 27.4562 41.6908 -57.2834 21.6411
lowerback 48.3936 -3.87482 5.70907
upperback 6.24832 -1.29221 5.36339
thorax -13.3183 -0.956148 3.8817
lowerneck -25.6175 2.61471 0.446491
upperneck -8.21533 2.93131 -6.5915
head 1.75013 0.968988 -2.03341
rclavicle 2.46493e-014 -6.93758e-014
rhumerus 52.9771 10.2962 -57.0482
rradius 59.1756
rwrist 27.6429
rhand -60.2304 -26.9796
rfingers 7.12502
rthumb -32.3712 -54.1104
lclavicle 2.46493e-014 -6.93758e-014
lhumerus 60.0491 -5.2255 49.4015
lradius 88.5259
lwrist -15.2431
lhand -31.1958 -10.0135
lfingers 7.12502
lthumb -4.47224 19.9193
rfemur -96.093 -21.9822 17.3922
rtibia 124.692
rfoot -28.1589 -21.6806
rtoes -0.477816
lfemur -72.6455 6.40683 5.89262
ltibia 86.4275
lfoot -30.3979 -0.281659
ltoes -35.8425
113
root 4.16563 11.6393 27.9115 45.1131 -59.1085 19.887
lowerback 46.9642 -3.29652 5.2533
upperback 7.11393 -0.949339 5.68478
thorax -13.4913 -0.771624 4.1153
lowerneck -25.1439 2.72747 0.567941
upperneck -9.00482 2.97094 -6.43087
head 1.39072 1.00017 -1.99413
rclavicle -1.82882e-014 -1.98785e-015
rhumerus 51.5374 10.7414 -56.459
rradius 61.7515
rwrist 28.0657
rhand -60.2808 -26.8343
rfingers 7.12502
rthumb -32.4192 -53.9553
lclavicle -1.82882e-014 -1.98785e-015
lhumerus 60.7577 -3.64995 48.2567
lradius 88.8406
lwrist -14.7557
lhand -30.5901 -10.513
lfingers 7.12502
lthumb -3.88734 19.4313
rfemur -95.8145 -20.6667 16.9546
rtibia 123.834
rfoot -27.653 -20.2461
rtoes -1.3012
lfemur -72.6465 6.48065 5.09685
ltibia 87.3386
lfoot -30.6208 0.847108
ltoes -36.65
114
root 3.97541 11.6021 28.3773 48.9278 -60.9793 17.6279
lowerback 46.3649 -2.74243 5.07082
upperback 7.0278 -0.413594 5.92787
thorax -13.4665 -0.550713 4.207
lowerneck -24.7959 2.70037 0.462448
upperneck -9.56744 2.90179 -6.1971
head 1.12392 0.977688 -1.90069
rclavicle 1.28812e-013 -8.94531e-016
rhumerus 49.8968 11.0425 -55.7584
rradius 64.2969
rwrist 28.2317
rhand -60.7825 -28.2089
rfingers 7.12502
rthumb -32.8964 -55.2309
lclavicle 1.28812e-013 -8.94531e-016
lhumerus 61.2775 -2.29822 47.6437
lradius 89.4339
lwrist -14.5606
lhand -29.3566 -10.9362
lfingers 7.12502
lthumb -2.69607 19.0265
rfemur -95.3685 -19.3211 16.7257
rtibia 122.866
rfoot -27.127 -19.5969
rtoes -1.34942
lfemur -72.4153 6.36897 4.40011
ltibia 88.1615
lfoot -30.6977 1.3592
ltoes -35.9512
115
root 3.78074 11.5566 28.8519 53.3258 -62.8666 14.7729
lowerback 45.738 -2.32695 4.93642
upperback 6.87155 -0.0425995 5.93704
thorax -13.5012 -0.396272 4.09699
lowerneck -24.6116 2.88881 0.817729
upperneck -9.72417 3.0407 -5.91947
head 1.04503 1.04465 -1.85825
rclavicle -9.91935e-014 -3.78685e-014
rhumerus 48.3011 11.5786 -55.7661
rradius 66.2046
rwrist 29.3453
rhand -61.3569 -25.8271
rfingers 7.12502
rthumb -33.4427 -52.7329
lclavicle -9.91935e-014 -3.78685e-014
lhumerus 61.2359 -1.30511 47.0002
lradius 90.2691
lwrist -14.7175
lhand -28.8463 -10.8556
lfingers 7.12502
lthumb -2.20329 19.1128
rfemur -94.9696 -17.9855 16.834
rtibia 121.789
rfoot -26.7194 -19.8023
rtoes -1.81826
lfemur -72.1654 6.19372 3.57953
ltibia 88.9185
lfoot -30.6508 2.29678
ltoes -35.5502
116
root 3.58442 11.4998 29.332 57.8452 -64.7738 11.8328
lowerback 45.0567 -2.04559 4.70708
upperback 6.63458 0.124729 5.80775
thorax -13.6011 -0.317283 3.9814
lowerneck -23.8936 3.18402 1.37064
upperneck -10.0186 3.2847 -5.72778
head 0.84512 1.17154 -1.87269
rclavicle 6.61953e-014 2.92462e-014
rhumerus 46.6439 12.3926 -55.9523
rradius 68.1662
rwrist 29.8628
rhand -61.8771 -27.1031
rfingers 7.12502
rthumb -33.937 -53.9009
lclavicle 6.61953e-014 2.92462e-014
lhumerus 60.7077 -0.581235 46.245
lradius 91.3212
lwrist -15.27
lhand -28.9247 -10.6841
lfingers 7.12502
lthumb -2.27896 19.2835
rfemur -94.5004 -17.1991 16.9439
rtibia 120.641
rfoot -26.9617 -19.5666
rtoes 1.19972
lfemur -71.9583 5.63021 2.56551
ltibia 89.5634
lfoot -30.3937 3.13601
ltoes -34.3994
117
root 3.38123 11.4286 29.8213 63.2374 -66.5538 8.02117
lowerback 44.1942 -1.64152 4.70884
upperback 6.52408 0.537708 5.88593
thorax -13.5011 -0.148994 3.85567
lowerneck -23.9524 3.14157 1.08381
upperneck -9.78712 3.30574 -5.32876
head 0.916861 1.19584 -1.68493
rclavicle -1.62407e-013 -7.14134e-014
rhumerus 45.0107 12.8266 -55.6269
rradius 70.1399
rwrist 30.5077
rhand -62.1358 -26.2661
rfingers 7.12502
rthumb -34.1826 -53.0091
lclavicle -1.62407e-013 -7.14134e-014
lhumerus 60.2822 -0.132973 46.0509
lradius 92.5449
lwrist -15.821
lhand -28.9535 -10.9663
lfingers 7.12502
lthumb -2.30683 19.001
rfemur -94.1964 -16.4043 17.5727
rtibia 119.331
rfoot -26.4378 -20.7479
rtoes 1.58117
lfemur -71.7376 4.93224 1.6587
ltibia 90.1241
lfoot -30.0917 4.04154
ltoes -33.2173
118
root 3.17088 11.3421 30.3172 69.6192 -68.1129 3.22879
lowerback 43.1172 -1.19039 4.77102
upperback 6.47095 1.01151 5.97445
thorax -13.2591 0.0440607 3.68012
lowerneck -23.8519 3.09259 0.95482
upperneck -9.63138 3.27365 -5.02195
head 0.942335 1.18868 -1.56193
rclavicle -2.34566e-014 3.18055e-015
rhumerus 43.2731 13.1558 -55.2882
rradius 72.1933
rwrist 31.0085
rhand -62.4864 -25.7453
rfingers 7.12502
rthumb -34.5155 -52.4131
lclavicle -2.34566e-014 3.18055e-015
lhumerus 59.6737 0.0047778 45.7641
lradius 93.9485
lwrist -16.0923
lhand -29.865 -11.2711
lfingers 7.12502
lthumb -3.18712 18.6848
rfemur -93.8424 -15.7503 18.4756
rtibia 117.846
rfoot -26.0514 -21.9916
rtoes 1.69229
lfemur -71.5395 4.10304 0.903508
ltibia 90.5566
lfoot -29.7847 4.7789
ltoes -31.9494
